HIERARCHY
ROOT pelvis
{
  OFFSET 0 100 0
  CHANNELS 6 Xposition Yposition Zposition Zrotation Xrotation Yrotation
  JOINT pelvis_right_femur
  {
    OFFSET -10.78128 -3.44521 -0.5502486
    CHANNELS 3 Zrotation Xrotation Yrotation
    JOINT right_femur_tibia
    {
      OFFSET -0.8047443 -44.0398 -0.1307829
      CHANNELS 3 Zrotation Xrotation Yrotation
      JOINT right_tibia_foot
      {
        OFFSET 3.006224 -47.83518 -5
        CHANNELS 3 Zrotation Xrotation Yrotation
        End Site
        {
          OFFSET 0 -5 15
        }
      }
    }
  }
  JOINT pelvis_left_femur
  {
    OFFSET 10.78128 -3.44521 -0.5502486
    CHANNELS 3 Zrotation Xrotation Yrotation
    JOINT left_femur_tibia
    {
      OFFSET 0.8047443 -44.0398 -0.1307829
      CHANNELS 3 Zrotation Xrotation Yrotation
      JOINT left_tibia_foot
      {
        OFFSET -4.370144 -48.10324 -4.275266
        CHANNELS 3 Zrotation Xrotation Yrotation
        End Site
        {
          OFFSET 0 -5 15
        }
      }
    }
  }
  JOINT pelvis_spine1
  {
    OFFSET 0 6.468898 -3.129235
    CHANNELS 3 Zrotation Xrotation Yrotation
    JOINT spine1
    {
      OFFSET 0 23.15396 4.99043
      CHANNELS 3 Zrotation Xrotation Yrotation
      JOINT spine2
      {
        OFFSET 0 20.79997 -5.064912
        CHANNELS 3 Zrotation Xrotation Yrotation
        JOINT neck
        {
          OFFSET 0 14.38658 9.616178
          CHANNELS 3 Zrotation Xrotation Yrotation
          End Site
          {
            OFFSET 0 20 0
          }
        }
      }
      JOINT right_manubrium
      {
        OFFSET -5.722621 16.35077 3.967754
        CHANNELS 3 Zrotation Xrotation Yrotation
        JOINT right_clavicle
        {
          OFFSET -13.16364 1.694482 -4.693211
          CHANNELS 3 Zrotation Xrotation Yrotation
          JOINT right_humerus
          {
            OFFSET -28.5034 -0.3100689 -2.792744
            CHANNELS 3 Zrotation Xrotation Yrotation
            JOINT right_radius
            {
              OFFSET -25.15693 0.02248979 -1.271978
              CHANNELS 3 Zrotation Xrotation Yrotation
              End Site
              {
                OFFSET -15 0 0
              }
            }
          }
        }
      }
      JOINT left_manubrium
      {
        OFFSET 5.722621 16.35077 3.967754
        CHANNELS 3 Zrotation Xrotation Yrotation
        JOINT left_clavicle
        {
          OFFSET 13.16364 1.694482 -4.693211
          CHANNELS 3 Zrotation Xrotation Yrotation
          JOINT left_humerus
          {
            OFFSET 29.39168 -1.063119 -2.237045
            CHANNELS 3 Zrotation Xrotation Yrotation
            JOINT left_radius
            {
              OFFSET 24.59957 -0.9528479 0.9047498
              CHANNELS 3 Zrotation Xrotation Yrotation
              End Site
              {
                OFFSET 15 -0 -0
              }
            }
          }
        }
      }
    }
  }
}
MOTION
Frames: 9
Frame Time: 0.0416666666667
9.688336 101.0503 3159.86 0.8207136 -8.119278 -10.56182 -0.7056362 14.44157 2.834114 -0 44.52533 -0 -1.332316 3.199447 -1.878065 -4.887193 -14.13782 -8.640097 -0 21.24687 -0 -3.018578 -9.694123 19.39666 -1.79532 -3.267053 8.434778 0.1831191 11.8568 -5.146284 -1.302112 21.73143 6.533156 6.171683 -14.55039 2.269397 3.971737 -25.26012 11.63237 81.9097 27.59144 -10.03754 -0 0 25.78834 -20.07485 8.494301 7.57339 6.167099 -25.42123 -6.220276 -98.21431 8.836249 35.2952 -0 0 4.608646 11.94978 13.99711 -0.4346042
9.554595 102.3403 3166.499 0.7512182 -8.492524 -9.643531 -0.5421242 8.669832 2.56574 -0 51.08012 -0 -1.686626 7.062359 -2.632504 -5.41135 -9.242418 -8.879834 -0 20.83414 -0 -1.78402 -10.63609 19.0793 -1.831238 -3.300204 8.271837 0.3226107 12.39335 -5.705774 -1.36205 21.45936 6.561396 6.50895 -14.74467 1.925898 4.05833 -25.04788 12.02968 82.8224 27.13068 -11.84315 -0 0 25.38019 -20.17208 8.201325 6.852502 6.488661 -26.15292 -6.67154 -97.57883 8.372016 34.00248 -0 0 2.932127 12.145 13.60568 -1.128926
9.44451 103.6127 3172.627 0.3897927 -8.633637 -8.59776 -0.1140953 1.805675 2.171286 -0 53.67067 -0 -2.246669 8.385795 -3.380311 -5.388768 -4.172945 -8.932528 -0 19.1957 -0 -1.133566 -11.78595 18.45551 -1.916872 -3.371568 8.055107 0.4822677 12.94337 -6.342038 -1.437179 21.13543 6.620349 6.908134 -14.98038 1.545202 4.175235 -24.76142 12.45113 83.75859 26.63418 -13.82835 -0 0 24.96533 -20.33424 7.887856 6.082103 6.958459 -26.98242 -7.113764 -96.80439 7.838316 32.35208 -0 0 0.8263321 12.39818 13.15974 -2.028736
9.340535 104.5272 3178.306 -0.03278326 -8.563413 -7.579818 0.2509401 -5.155225 1.611258 -0 51.49138 -0 -2.867402 7.381407 -4.058654 -5.133506 0.6666602 -9.02949 -0 16.83728 -0 -1.203182 -13.28413 17.59493 -2.062275 -3.471598 7.774126 0.6410164 13.41858 -6.981993 -1.512771 20.79338 6.721236 7.334246 -15.25138 1.189962 4.320953 -24.3868 12.83645 84.58165 26.19978 -15.75175 -0 0 24.57223 -20.56759 7.618604 5.370193 7.580211 -27.79775 -7.46062 -95.93023 7.2918 30.38087 0 0 -1.590975 12.71793 12.72144 -3.129673
9.206713 104.8484 3183.699 -0.2777501 -8.271773 -6.683333 0.3658831 -11.51931 0.8378191 -0 45.07128 -0 -3.288428 4.9854 -4.650926 -4.921495 4.995765 -9.167281 -0 14.37249 -0 -1.713904 -15.11724 16.61487 -2.26798 -3.571196 7.413925 0.7765185 13.7329 -7.542862 -1.564585 20.48243 6.875647 7.74375 -15.558 0.9427939 4.494402 -23.90129 13.12539 85.17571 25.95229 -17.37269 -0 0 24.17984 -20.85506 7.466324 4.816788 8.329919 -28.4641 -7.630346 -95.00813 6.810822 28.14701 0 0 -4.126911 13.12247 12.37319 -4.41405
9.001154 104.4946 3189.024 -0.2145943 -7.721773 -5.931257 0.2130007 -16.96992 -0.1219609 -0 35.89865 -0 -3.333795 2.349927 -5.13113 -4.909165 8.712491 -9.200763 -0 12.37518 -0 -2.230169 -17.10549 15.63263 -2.517118 -3.626888 6.965931 0.8717035 13.82692 -7.952647 -1.565529 20.25309 7.087662 8.091258 -15.90415 0.8829828 4.686773 -23.28958 13.27372 85.48 26.00038 -18.50651 -0 0 23.72495 -21.15481 7.489524 4.489791 9.145642 -28.85878 -7.576217 -94.08783 6.474325 25.73962 0 0 -6.559977 13.63322 12.18842 -5.842961
8.686176 103.5364 3194.507 0.1263169 -6.929819 -5.300073 -0.07767136 -21.37094 -1.118773 -0 25.87977 -0 -3.056887 0.4164738 -5.482377 -5.097783 11.87215 -9.019879 -0 11.37101 -0 -2.51072 -18.94298 14.7338 -2.774922 -3.595295 6.440862 0.9202033 13.68778 -8.169581 -1.496178 20.1424 7.346854 8.339314 -16.2901 1.057045 4.877545 -22.56096 13.26642 85.50532 26.38872 -19.06846 -0 0 23.13058 -21.41072 7.70528 4.407475 9.930729 -28.91094 -7.308459 -93.20977 6.339633 23.28762 0 0 -8.689419 14.25757 12.2003 -7.344265
8.228537 102.1661 3200.335 0.5794399 -6.031959 -4.751159 -0.262833 -24.5521 -1.894375 -0 16.90705 -0 -2.690347 -0.3534638 -5.753369 -5.350357 14.58223 -8.642461 -0 11.86221 -0 -2.678279 -20.2433 13.93972 -2.998433 -3.451266 5.87555 0.9271842 13.35655 -8.192168 -1.354053 20.16475 7.626404 8.468305 -16.70335 1.456048 5.039139 -21.75853 13.12303 85.32598 27.07064 -19.09094 -0 0 22.34699 -21.57296 8.074007 4.535215 10.57605 -28.62779 -6.8938 -92.41068 6.427856 20.96013 0 0 -10.3607 14.96682 12.38824 -8.803782
7.598085 100.6616 3206.624 0.9183085 -5.276671 -4.257817 -0.0426274 -26.25638 -2.14584 -0 10.54463 -0 -2.474837 -0.04425818 -6.049849 -5.460817 16.86611 -8.179961 -0 14.30611 -0 -3.068832 -20.59028 13.23674 -3.152365 -3.199906 5.328137 0.9042554 12.9176 -8.053977 -1.155805 20.31161 7.888473 8.480851 -17.11376 2.0139 5.148085 -20.95549 12.89126 85.04922 27.91979 -18.70141 -0 0 21.38809 -21.61884 8.510208 4.800928 10.99317 -28.08934 -6.43058 -91.73569 6.72237 18.9519 0 0 -11.46165 15.68597 12.69336 -10.07375
